<svg id="Layer_1" data-name="Layer 1" xmlns="http://www.w3.org/2000/svg" width="197" height="194.24" viewBox="0 0 197 194.24"><defs><style>.cls-1{fill:#2c5471}.cls-2{fill:#fbb040}.cls-3{fill:#fff}</style></defs><title>logo</title><path class="cls-1" d="M26.51 191.58l.86-.54a3.7 3.7 0 0 0 3.44 2.22c1.72 0 3-1.3 3-3.74V180h1v9.44a5 5 0 0 1-1.28 3.64 4 4 0 0 1-2.86 1.12 4.61 4.61 0 0 1-4.16-2.62zM38.21 187a7 7 0 0 1 6.92-7.24 7.34 7.34 0 0 1 5.12 1.84l-.68.78a6.31 6.31 0 0 0-4.5-1.68c-3.4 0-5.78 2.88-5.78 6.26 0 3.62 2.26 6.32 6 6.32a7.19 7.19 0 0 0 4.46-1.6v-4h-4.68v-1h5.68v5.4a8.42 8.42 0 0 1-5.5 2.1c-4.42.06-7.04-3.18-7.04-7.18zM54.51 180h5.88a5.51 5.51 0 0 1 3.94 1.38 3.69 3.69 0 0 1 1.06 2.6c0 2.34-1.74 3.68-4.1 4l4.62 6h-1.32l-4.46-5.8h-4.58V194h-1v-14zm5.76 7.26c2.34 0 4.08-1.18 4.08-3.2 0-1.88-1.48-3.06-4-3.06h-4.8v6.3h4.72zM69 180h10v1h-9v5.5h8v1h-8v5.5h9v1H69v-14zM82.37 180h1L93 192.18V180h1v14h-.77l-9.86-12.44V194h-1v-14z" transform="translate(-1.5)"/><path class="cls-2" d="M97.89 180h5.22c4.4 0 7.44 3 7.44 7 0 3.94-3 7-7.44 7h-5.22v-14zm5.22 11.76A4.56 4.56 0 0 0 108 187a4.59 4.59 0 0 0-4.86-4.76h-2.76v9.52h2.76zM113.53 180h10.38v2.2H116v3.64h7V188h-7v3.76h8V194h-10.47v-14zM126 192l1.48-1.76a6.45 6.45 0 0 0 4.42 1.82c1.52 0 2.48-.7 2.48-1.76 0-1-.56-1.54-3.16-2.14-3-.72-4.66-1.6-4.66-4.18 0-2.4 2-4.06 4.78-4.06a7.76 7.76 0 0 1 5.08 1.76l-1.32 1.86a6.36 6.36 0 0 0-3.8-1.44c-1.44 0-2.28.74-2.28 1.66 0 1.08.64 1.56 3.32 2.2 3 .72 4.5 1.78 4.5 4.1 0 2.62-2.06 4.18-5 4.18A8.63 8.63 0 0 1 126 192zM139.87 180h2.46v14h-2.46v-14zM145.45 187a7.13 7.13 0 0 1 7.22-7.24 7.56 7.56 0 0 1 5.38 1.9l-1.56 1.86a5.49 5.49 0 0 0-3.92-1.5A4.74 4.74 0 0 0 148 187a4.68 4.68 0 0 0 4.76 5 5.71 5.71 0 0 0 3.38-1.06v-2.62h-3.58v-2.14h6v5.88a8.93 8.93 0 0 1-5.84 2.18 7 7 0 0 1-7.27-7.24zM161.75 180H164l7.5 9.68V180h2.5v14h-2.06l-7.72-10v10h-2.42v-14zM1.5 0v165h178.25c11 0 18.75-9.25 18.75-20.25V0H1.5z" transform="translate(-1.5)"/><path class="cls-3" d="M160.34 157.13h-19.12v-4.35h19.11a15.26 15.26 0 0 0 15.25-15.25V66.9a15.26 15.26 0 0 0-15.25-15.25H129V89.9h-4.35V47.3h35.72a19.62 19.62 0 0 1 19.6 19.6v70.64a19.62 19.62 0 0 1-19.63 19.59z" transform="translate(-1.5)"/><path class="cls-1" d="M57 47H1.5v5H57c8.41 0 15.5 6.49 15.5 14.9v70.64A15.67 15.67 0 0 1 57 153H37.5v4H57a19.42 19.42 0 0 0 19.5-19.46V66.9C76.5 56.09 67.81 47 57 47zM118.5 112v5h13v36H99.79a15.49 15.49 0 0 1-15.29-15.46V66.9A15 15 0 0 1 99.79 52h18.71v-5H99.79C89 47 80.5 56.09 80.5 66.9v70.64A19.24 19.24 0 0 0 99.79 157h35.71v-45h-17z" transform="translate(-1.5)"/></svg>